<?xml version="1.0" encoding="UTF-8" standalone="no"?>
<!-- Created with Inkscape (http://www.inkscape.org/) -->

<svg
   xmlns:dc="http://purl.org/dc/elements/1.1/"
   xmlns:cc="http://creativecommons.org/ns#"
   xmlns:rdf="http://www.w3.org/1999/02/22-rdf-syntax-ns#"
   xmlns:svg="http://www.w3.org/2000/svg"
   xmlns="http://www.w3.org/2000/svg"
   version="1.1"
   width="990"
   height="765"
   id="svg2">
  <metadata
     id="metadata4225">
    <rdf:RDF>
      <cc:Work
         rdf:about="">
        <dc:format>image/svg+xml</dc:format>
        <dc:type
           rdf:resource="http://purl.org/dc/dcmitype/StillImage" />
        <dc:title></dc:title>
      </cc:Work>
    </rdf:RDF>
  </metadata>
  <defs
     id="defs4223" />
  <path
     d="m 298,414 171,1 c 10,0 12,-1 12,-10 l 0,-50"
     id="path4125"
     style="fill:none;stroke:#000000;stroke-width:2" />
  <path
     d="m 200,414 22,0"
     id="path4143"
     style="fill:none;stroke:#000000;stroke-width:2" />
  <path
     d="m 123,413 -52,0 c -36,0 -35,70 0,70 l 54,0"
     id="path4145"
     style="fill:none;stroke:#000000;stroke-width:2" />
  <path
     d="m 203,457 4,0 0,-5 5,0 0,-5 5,0 0,-5 5,0"
     id="path4147"
     style="fill:none;stroke:#000000;stroke-width:2" />
  <path
     d="m 276,594 -11,0 c -8,0 -11,-1 -11,-10 l 0,-139"
     id="path4165"
     style="fill:none;stroke:#000000;stroke-width:2" />
  <path
     d="m 202,483 166,0 c 46,0 47,108 0,108 l -16,0"
     id="path4167"
     style="fill:none;stroke:#000000;stroke-width:2" />
  <path
     d="m 284,561 0,-5 -4,0 0,-5 -5,0 0,-5 -5,0 0,-3 c 0,-1 -1,-1 -1,-1 l -32,0 c -4,0 -7,2 -7,7 l 0,99"
     id="path4181"
     style="fill:none;stroke:#000000;stroke-width:2" />
  <path
     d="m 276,730 -31,1 c -10,0 -12,-1 -12,-10 l 0,-11"
     id="path4183"
     style="fill:none;stroke:#000000;stroke-width:2" />
  <path
     d="m 317,560 -1,-10 c -1,-10 1,-12 10,-12 l 223,0"
     id="path4193"
     style="fill:none;stroke:#000000;stroke-width:2" />
  <path
     d="m 589,508 0,-20 c 0,-10 -14,-10 -14,0 l 0,20"
     id="path4049-2"
     style="fill:none;stroke:#000000;stroke-width:2" />
  <path
     d="m 529,579 4,0 0,-5 5,0 0,-5 5,0 0,-5 5,0"
     id="path4221"
     style="fill:none;stroke:#000000;stroke-width:2" />
  <path
     d="m 624,537 30,0"
     id="path4239"
     style="fill:none;stroke:#000000;stroke-width:2" />
  <path
     d="m 694,568 1,30 c 0,10 -1,12 -10,12 l -23,0"
     id="path4253"
     style="fill:none;stroke:#000000;stroke-width:2" />
  <path
     d="m 826,629 11,11"
     id="path4295"
     style="fill:none;stroke:#000000;stroke-width:2" />
  <path
     d="m 728,537 140,-1 c 10,0 12,1 12,10 l 0,92"
     id="path4310"
     style="fill:none;stroke:#000000;stroke-width:2" />
  <path
     d="m 728,454 19,0 c 6,0 10,2 10,10 l 0,198 c 0,10 1,12 10,12 l 68,0"
     id="path4312"
     style="fill:none;stroke:#000000;stroke-width:2" />
  <path
     d="m 691,484 0,24"
     id="path4322"
     style="fill:none;stroke:#000000;stroke-width:2" />
  <path
     d="m 644,454 8,0"
     id="path4332"
     style="fill:none;stroke:#000000;stroke-width:2" />
  <g
     id="g4293">
    <rect
       width="75"
       height="60"
       x="295"
       y="179"
       id="rect4270"
       style="fill:none;stroke:#000000;stroke-width:1" />
    <text
       x="333"
       y="213"
       id="text4272"
       style="font-size:10px;text-align:center;line-height:125%;text-anchor:middle;font-family:Arial"><tspan
         x="333"
         y="213"
         id="tspan4274">80</tspan></text>
    <text
       x="364"
       y="233"
       id="text4276"
       style="font-size:8px;font-style:italic;text-align:end;line-height:125%;text-anchor:end;font-family:Arial Italic"><tspan
         x="364"
         y="233"
         id="tspan4278">like11</tspan></text>
  </g>
  <g
     transform="translate(1,-2)"
     id="g4337">
    <text
       x="419"
       y="229"
       id="text4280"
       style="font-size:8px;font-style:italic;text-align:end;line-height:125%;text-anchor:end;font-family:Arial Italic"><tspan
         x="419"
         y="229"
         id="tspan4282">dead1</tspan></text>
    <path
       d="m 439,215 a 29,29 0 1 1 -58,0 29,29 0 1 1 58,0 z"
       transform="translate(-2,-4)"
       id="path4300"
       style="fill:none;stroke:#000000;stroke-width:1" />
    <text
       x="403"
       y="215"
       id="text4302"
       style="font-size:10px;line-height:125%;font-family:Arial"><tspan
         x="403"
         y="215"
         id="tspan4304">81</tspan></text>
  </g>
  <path
     d="m 330,179 -1,-28 c 0,-10 1,-12 10,-12 l 69,0"
     id="path4045"
     style="fill:none;stroke:#000000;stroke-width:2" />
  <path
     d="m 360,50 5,0 m 5,0 5,0 m 5,0 31,0"
     id="path4336"
     style="fill:none;stroke:#000000;stroke-width:2" />
  <path
     d="m 538,50 -5,0 m -5,0 -5,0 m -4,0 -31,0"
     id="path3134"
     style="fill:none;stroke:#000000;stroke-width:2" />
  <path
     d="m 431,109 0,-5 5,0 0,-5 5,0 0,-5 3,0 c 0,0 1,-1 1,-1 l 0,-10"
     id="path4047"
     style="fill:none;stroke:#000000;stroke-width:2" />
  <path
     d="m 295,196 -20,0 c -10,0 -10,14 0,14 l 20,0"
     id="path4049"
     style="fill:none;stroke:#000000;stroke-width:2" />
  <path
     d="m 324,238 0,20 c 0,10 14,10 14,0 l 0,-20"
     id="path4051"
     style="fill:none;stroke:#000000;stroke-width:2" />
  <path
     d="m 486,140 47,0"
     id="path4053"
     style="fill:none;stroke:#000000;stroke-width:2" />
  <path
     d="m 611,140 34,-1 c 10,0 12,1 12,10 l 0,18"
     id="path4087"
     style="fill:none;stroke:#000000;stroke-width:2" />
  <path
     d="m 662,229 1,30 c 0,10 -1,12 -10,12 l -13,0"
     id="path4089"
     style="fill:none;stroke:#000000;stroke-width:2" />
  <path
     d="m 449,170 -1,17 c 0,10 1,12 10,12 l 160,0"
     id="path4093"
     style="fill:none;stroke:#000000;stroke-width:2" />
  <path
     d="m 521,317 30,1 c 10,0 12,-1 12,-10 l 0,-137"
     id="path4103"
     style="fill:none;stroke:#000000;stroke-width:2" />
  <path
     d="m 424,367 4,0 0,-5 5,0 0,-5 5,0 0,-5 5,0"
     id="path4115"
     style="fill:none;stroke:#000000;stroke-width:2" />
  <g
     transform="translate(-113,103)"
     id="g4206">
    <rect
       width="75"
       height="60"
       x="523"
       y="-83"
       id="rect4194"
       style="fill:none;stroke:#000000;stroke-width:1" />
    <text
       x="560"
       y="-56"
       id="text4196"
       style="font-size:10px;text-align:center;line-height:125%;text-anchor:middle;font-family:Arial"><tspan
         x="560"
         y="-56"
         id="tspan4198">West End of</tspan><tspan
         x="560"
         y="-44"
         id="tspan4200">Hall of Mists</tspan></text>
    <text
       x="592"
       y="-30"
       id="text4202"
       style="font-size:8px;font-style:italic;text-align:end;line-height:125%;text-anchor:end;font-family:Arial Italic"><tspan
         x="592"
         y="-30"
         id="tspan4204">wmist</tspan></text>
  </g>
  <g
     id="g4248">
    <rect
       width="75"
       height="60"
       x="409"
       y="109"
       id="rect4227"
       style="fill:none;stroke:#000000;stroke-width:1" />
    <text
       x="447"
       y="142"
       id="text4229"
       style="font-size:10px;text-align:center;line-height:125%;text-anchor:middle;font-family:Arial"><tspan
         x="447"
         y="142"
         id="tspan4233">42</tspan></text>
    <text
       x="479"
       y="162"
       id="text4236"
       style="font-size:8px;font-style:italic;text-align:end;line-height:125%;text-anchor:end;font-family:Arial Italic"><tspan
         x="479"
         y="162"
         id="tspan4238">like1</tspan></text>
  </g>
  <g
     transform="translate(125,0)"
     id="g4256">
    <rect
       width="75"
       height="60"
       x="409"
       y="109"
       id="rect4258"
       style="fill:none;stroke:#000000;stroke-width:1" />
    <text
       x="447"
       y="142"
       id="text4260"
       style="font-size:10px;text-align:center;line-height:125%;text-anchor:middle;font-family:Arial"><tspan
         x="447"
         y="142"
         id="tspan4262">43</tspan></text>
    <text
       x="479"
       y="162"
       id="text4264"
       style="font-size:8px;font-style:italic;text-align:end;line-height:125%;text-anchor:end;font-family:Arial Italic"><tspan
         x="479"
         y="162"
         id="tspan4266">like2</tspan></text>
  </g>
  <g
     transform="translate(210,60)"
     id="g4325">
    <rect
       width="75"
       height="60"
       x="409"
       y="109"
       id="rect4327"
       style="fill:none;stroke:#000000;stroke-width:1" />
    <text
       x="447"
       y="142"
       id="text4329"
       style="font-size:10px;text-align:center;line-height:125%;text-anchor:middle;font-family:Arial"><tspan
         x="447"
         y="142"
         id="tspan4331">45</tspan></text>
    <text
       x="479"
       y="162"
       id="text4333"
       style="font-size:8px;font-style:italic;text-align:end;line-height:125%;text-anchor:end;font-family:Arial Italic"><tspan
         x="479"
         y="162"
         id="tspan4335">like4</tspan></text>
  </g>
  <g
     transform="translate(201,59)"
     id="g4344">
    <text
       x="419"
       y="229"
       id="text4346"
       style="font-size:8px;font-style:italic;text-align:end;line-height:125%;text-anchor:end;font-family:Arial Italic"><tspan
         x="419"
         y="229"
         id="tspan4348">dead4</tspan></text>
    <path
       d="m 439,215 a 29,29 0 1 1 -58,0 29,29 0 1 1 58,0 z"
       transform="translate(-2,-4)"
       id="path4350"
       style="fill:none;stroke:#000000;stroke-width:1" />
    <text
       x="403"
       y="215"
       id="text4352"
       style="font-size:10px;line-height:125%;font-family:Arial"><tspan
         x="403"
         y="215"
         id="tspan4354">47</tspan></text>
  </g>
  <g
     transform="translate(35,185)"
     id="g4356">
    <rect
       width="75"
       height="60"
       x="409"
       y="109"
       id="rect4358"
       style="fill:none;stroke:#000000;stroke-width:1" />
    <text
       x="447"
       y="142"
       id="text4360"
       style="font-size:10px;text-align:center;line-height:125%;text-anchor:middle;font-family:Arial"><tspan
         x="447"
         y="142"
         id="tspan4362">44</tspan></text>
    <text
       x="479"
       y="162"
       id="text4364"
       style="font-size:8px;font-style:italic;text-align:end;line-height:125%;text-anchor:end;font-family:Arial Italic"><tspan
         x="479"
         y="162"
         id="tspan4366">like3</tspan></text>
  </g>
  <g
     transform="translate(74,40)"
     id="g4380">
    <text
       x="419"
       y="229"
       id="text4382"
       style="font-size:8px;font-style:italic;text-align:end;line-height:125%;text-anchor:end;font-family:Arial Italic"><tspan
         x="419"
         y="229"
         id="tspan4384">dead9</tspan></text>
    <path
       d="m 439,215 a 29,29 0 1 1 -58,0 29,29 0 1 1 58,0 z"
       transform="translate(-2,-4)"
       id="path4386"
       style="fill:none;stroke:#000000;stroke-width:1" />
    <text
       x="403"
       y="215"
       id="text4388"
       style="font-size:10px;line-height:125%;font-family:Arial"><tspan
         x="403"
         y="215"
         id="tspan4390">82</tspan></text>
  </g>
  <g
     transform="translate(331,-11)"
     id="g4392">
    <text
       x="419"
       y="229"
       id="text4394"
       style="font-size:8px;font-style:italic;text-align:end;line-height:125%;text-anchor:end;font-family:Arial Italic"><tspan
         x="419"
         y="229"
         id="tspan4396">dead3</tspan></text>
    <path
       d="m 439,215 a 29,29 0 1 1 -58,0 29,29 0 1 1 58,0 z"
       transform="translate(-2,-4)"
       id="path4398"
       style="fill:none;stroke:#000000;stroke-width:1" />
    <text
       x="403"
       y="215"
       id="text4400"
       style="font-size:10px;line-height:125%;font-family:Arial"><tspan
         x="403"
         y="215"
         id="tspan4402">46</tspan></text>
  </g>
  <g
     transform="translate(-12,160)"
     id="g4404">
    <text
       x="419"
       y="229"
       id="text4406"
       style="font-size:8px;font-style:italic;text-align:end;line-height:125%;text-anchor:end;font-family:Arial Italic"><tspan
         x="419"
         y="229"
         id="tspan4408">dead5</tspan></text>
    <path
       d="m 439,215 a 29,29 0 1 1 -58,0 29,29 0 1 1 58,0 z"
       transform="translate(-2,-4)"
       id="path4410"
       style="fill:none;stroke:#000000;stroke-width:1" />
    <text
       x="403"
       y="215"
       id="text4412"
       style="font-size:10px;line-height:125%;font-family:Arial"><tspan
         x="403"
         y="215"
         id="tspan4414">48</tspan></text>
  </g>
  <g
     transform="translate(-187,276)"
     id="g4416">
    <rect
       width="75"
       height="60"
       x="409"
       y="109"
       id="rect4418"
       style="fill:none;stroke:#000000;stroke-width:1" />
    <text
       x="447"
       y="142"
       id="text4420"
       style="font-size:10px;text-align:center;line-height:125%;text-anchor:middle;font-family:Arial"><tspan
         x="447"
         y="142"
         id="tspan4422">50</tspan></text>
    <text
       x="479"
       y="162"
       id="text4424"
       style="font-size:8px;font-style:italic;text-align:end;line-height:125%;text-anchor:end;font-family:Arial Italic"><tspan
         x="479"
         y="162"
         id="tspan4426">like6</tspan></text>
  </g>
  <g
     transform="translate(-284,276)"
     id="g4428">
    <rect
       width="75"
       height="60"
       x="409"
       y="109"
       id="rect4430"
       style="fill:none;stroke:#000000;stroke-width:1" />
    <text
       x="447"
       y="142"
       id="text4432"
       style="font-size:10px;text-align:center;line-height:125%;text-anchor:middle;font-family:Arial"><tspan
         x="447"
         y="142"
         id="tspan4434">49</tspan></text>
    <text
       x="479"
       y="162"
       id="text4436"
       style="font-size:8px;font-style:italic;text-align:end;line-height:125%;text-anchor:end;font-family:Arial Italic"><tspan
         x="479"
         y="162"
         id="tspan4438">like5</tspan></text>
  </g>
  <g
     transform="translate(-282,345)"
     id="g4440">
    <rect
       width="75"
       height="60"
       x="409"
       y="109"
       id="rect4442"
       style="fill:none;stroke:#000000;stroke-width:1" />
    <text
       x="447"
       y="142"
       id="text4444"
       style="font-size:10px;text-align:center;line-height:125%;text-anchor:middle;font-family:Arial"><tspan
         x="447"
         y="142"
         id="tspan4446">51</tspan></text>
    <text
       x="479"
       y="162"
       id="text4448"
       style="font-size:8px;font-style:italic;text-align:end;line-height:125%;text-anchor:end;font-family:Arial Italic"><tspan
         x="479"
         y="162"
         id="tspan4450">like7</tspan></text>
  </g>
  <g
     transform="translate(-132,452)"
     id="g4452">
    <rect
       width="75"
       height="60"
       x="409"
       y="109"
       id="rect4454"
       style="fill:none;stroke:#000000;stroke-width:1" />
    <text
       x="447"
       y="142"
       id="text4456"
       style="font-size:10px;text-align:center;line-height:125%;text-anchor:middle;font-family:Arial"><tspan
         x="447"
         y="142"
         id="tspan4458">52</tspan></text>
    <text
       x="479"
       y="162"
       id="text4460"
       style="font-size:8px;font-style:italic;text-align:end;line-height:125%;text-anchor:end;font-family:Arial Italic"><tspan
         x="479"
         y="162"
         id="tspan4462">like8</tspan></text>
  </g>
  <path
     d="m 303,622 0,20 c 0,10 14,10 14,0 l 0,-20"
     id="path4464"
     style="fill:none;stroke:#000000;stroke-width:2" />
  <g
     transform="translate(-216,539)"
     id="g4466">
    <rect
       width="75"
       height="60"
       x="409"
       y="109"
       id="rect4468"
       style="fill:none;stroke:#000000;stroke-width:1" />
    <text
       x="447"
       y="142"
       id="text4470"
       style="font-size:10px;text-align:center;line-height:125%;text-anchor:middle;font-family:Arial"><tspan
         x="447"
         y="142"
         id="tspan4472">53</tspan></text>
    <text
       x="479"
       y="162"
       id="text4474"
       style="font-size:8px;font-style:italic;text-align:end;line-height:125%;text-anchor:end;font-family:Arial Italic"><tspan
         x="479"
         y="162"
         id="tspan4476">like9</tspan></text>
  </g>
  <g
     transform="translate(-102,517)"
     id="g4478">
    <text
       x="419"
       y="229"
       id="text4480"
       style="font-size:8px;font-style:italic;text-align:end;line-height:125%;text-anchor:end;font-family:Arial Italic"><tspan
         x="419"
         y="229"
         id="tspan4482">dead6</tspan></text>
    <path
       d="m 439,215 a 29,29 0 1 1 -58,0 29,29 0 1 1 58,0 z"
       transform="translate(-2,-4)"
       id="path4484"
       style="fill:none;stroke:#000000;stroke-width:1" />
    <text
       x="403"
       y="215"
       id="text4486"
       style="font-size:10px;line-height:125%;font-family:Arial"><tspan
         x="403"
         y="215"
         id="tspan4488">54</tspan></text>
  </g>
  <g
     transform="translate(140,399)"
     id="g4490">
    <rect
       width="75"
       height="60"
       x="409"
       y="109"
       id="rect4492"
       style="fill:none;stroke:#000000;stroke-width:1" />
    <text
       x="447"
       y="142"
       id="text4494"
       style="font-size:10px;text-align:center;line-height:125%;text-anchor:middle;font-family:Arial"><tspan
         x="447"
         y="142"
         id="tspan4496">55</tspan></text>
    <text
       x="479"
       y="162"
       id="text4498"
       style="font-size:8px;font-style:italic;text-align:end;line-height:125%;text-anchor:end;font-family:Arial Italic"><tspan
         x="479"
         y="162"
         id="tspan4500">like10</tspan></text>
  </g>
  <g
     transform="translate(95,382)"
     id="g4514">
    <text
       x="419"
       y="229"
       id="text4516"
       style="font-size:8px;font-style:italic;text-align:end;line-height:125%;text-anchor:end;font-family:Arial Italic"><tspan
         x="419"
         y="229"
         id="tspan4518">dead7</tspan></text>
    <path
       d="m 439,215 a 29,29 0 1 1 -58,0 29,29 0 1 1 58,0 z"
       transform="translate(-2,-4)"
       id="path4520"
       style="fill:none;stroke:#000000;stroke-width:1" />
    <text
       x="403"
       y="215"
       id="text4522"
       style="font-size:10px;line-height:125%;font-family:Arial"><tspan
         x="403"
         y="215"
         id="tspan4524">56</tspan></text>
  </g>
  <g
     id="g4607">
    <text
       x="642"
       y="628"
       id="text4528"
       style="font-size:8px;font-style:italic;text-align:end;line-height:125%;text-anchor:end;font-family:Arial Italic"><tspan
         x="642"
         y="628"
         id="tspan4530">dead8</tspan></text>
    <path
       d="m 439,215 a 29,29 0 1 1 -58,0 29,29 0 1 1 58,0 z"
       transform="translate(221,395)"
       id="path4532"
       style="fill:none;stroke:#000000;stroke-width:1" />
    <text
       x="626"
       y="614"
       id="text4534"
       style="font-size:10px;line-height:125%;font-family:Arial"><tspan
         x="626"
         y="614"
         id="tspan4536">58</tspan></text>
  </g>
  <g
     id="g4558">
    <rect
       width="75"
       height="60"
       x="654"
       y="508"
       id="rect4540"
       style="fill:none;stroke:#000000;stroke-width:1" />
    <text
       x="691"
       y="535"
       id="text4542"
       style="font-size:10px;text-align:center;line-height:125%;text-anchor:middle;font-family:Arial"><tspan
         x="691"
         y="535"
         id="tspan4544">57</tspan><tspan
         x="691"
         y="547"
         id="tspan4550">Brink of Pit</tspan></text>
    <text
       x="723"
       y="561"
       id="text4546"
       style="font-size:8px;font-style:italic;text-align:end;line-height:125%;text-anchor:end;font-family:Arial Italic"><tspan
         x="723"
         y="561"
         id="tspan4548">brink</tspan></text>
  </g>
  <g
     transform="translate(244,316)"
     id="g4566">
    <rect
       width="75"
       height="60"
       x="409"
       y="109"
       id="rect4568"
       style="fill:none;stroke:#000000;stroke-width:1" />
    <text
       x="447"
       y="142"
       id="text4570"
       style="font-size:10px;text-align:center;line-height:125%;text-anchor:middle;font-family:Arial"><tspan
         x="447"
         y="142"
         id="tspan4572">83</tspan></text>
    <text
       x="479"
       y="162"
       id="text4574"
       style="font-size:8px;font-style:italic;text-align:end;line-height:125%;text-anchor:end;font-family:Arial Italic"><tspan
         x="479"
         y="162"
         id="tspan4576">like12</tspan></text>
  </g>
  <g
     id="g4595">
    <text
       x="628"
       y="471"
       id="text4580"
       style="font-size:8px;font-style:italic;text-align:end;line-height:125%;text-anchor:end;font-family:Arial Italic"><tspan
         x="628"
         y="471"
         id="tspan4582">dead10</tspan></text>
    <path
       d="m 439,215 a 29,29 0 1 1 -58,0 29,29 0 1 1 58,0 z"
       transform="translate(204,238)"
       id="path4584"
       style="fill:none;stroke:#000000;stroke-width:1" />
    <text
       x="609"
       y="457"
       id="text4586"
       style="font-size:10px;line-height:125%;font-family:Arial"><tspan
         x="609"
         y="457"
         id="tspan4588">85</tspan></text>
  </g>
  <g
     transform="translate(426,531)"
     id="g4625">
    <rect
       width="75"
       height="60"
       x="409"
       y="109"
       id="rect4627"
       style="fill:none;stroke:#000000;stroke-width:1" />
    <text
       x="447"
       y="142"
       id="text4629"
       style="font-size:10px;text-align:center;line-height:125%;text-anchor:middle;font-family:Arial"><tspan
         x="447"
         y="142"
         id="tspan4631">84</tspan></text>
    <text
       x="479"
       y="162"
       id="text4633"
       style="font-size:8px;font-style:italic;text-align:end;line-height:125%;text-anchor:end;font-family:Arial Italic"><tspan
         x="479"
         y="162"
         id="tspan4635">like13</tspan></text>
  </g>
  <g
     transform="translate(95,-65)"
     id="g4660">
    <text
       x="709"
       y="662"
       id="text4645"
       style="font-size:10px;text-align:center;line-height:125%;text-anchor:middle;font-family:Arial"><tspan
         x="709"
         y="662"
         id="tspan4647">114</tspan><tspan
         x="709"
         y="674"
         id="tspan4649">Pirate’s</tspan><tspan
         x="709"
         y="687"
         id="tspan4651">Lair</tspan></text>
    <text
       x="720"
       y="698"
       id="text4639"
       style="font-size:8px;font-style:italic;text-align:end;line-height:125%;text-anchor:end;font-family:Arial Italic"><tspan
         x="720"
         y="698"
         id="tspan4641">dead2</tspan></text>
    <path
       d="m 439,215 a 29,29 0 1 1 -58,0 29,29 0 1 1 58,0 z"
       transform="translate(299,459)"
       id="path4643"
       style="fill:none;stroke:#000000;stroke-width:1" />
  </g>
  <path
     d="m 709,199 -14,0"
     id="path4866"
     style="fill:none;stroke:#000000;stroke-width:2" />
  <path
     d="m 379,209 -9,0"
     id="path4868"
     style="fill:none;stroke:#000000;stroke-width:2" />
  <path
     d="m 483,294 0,-14"
     id="path4870"
     style="fill:none;stroke:#000000;stroke-width:2" />
  <g
     transform="translate(-6,11)"
     id="g3430">
    <text
       x="390"
       y="646"
       id="text3415"
       style="font-size:8px;font-style:italic;text-align:center;line-height:125%;text-anchor:middle;font-family:Arial Italic"><tspan
         x="404"
         y="646"
         id="tspan3417"
         style="text-align:center;text-anchor:middle">dead11</tspan></text>
    <path
       d="m 433,628 a 29,29 0 0 1 -58,0 29,29 0 1 1 58,0 z"
       id="path3419"
       style="fill:none;stroke:#000000;stroke-width:1" />
    <text
       x="398"
       y="632"
       id="text3421"
       style="font-size:10px;line-height:125%;font-family:Arial"><tspan
         x="398"
         y="632"
         id="tspan3423">86</tspan></text>
  </g>
  <path
     d="m 372,626 -4,0 0,-5 -5,0 0,-5 -5,0 0,-5 -5,0"
     id="path3437"
     style="fill:none;stroke:#000000;stroke-width:2" />
  <path
     d="m 455,110 0,-10 c 0,-10 14,-10 14,0 l 0,10"
     id="path3178"
     style="fill:none;stroke:#000000;stroke-width:2" />
  <path
     d="m 700,151 0,4 -5,0 0,5 -5,0 0,5 -5,0 0,5"
     id="path3400"
     style="fill:none;stroke:#000000;stroke-width:2" />
  <g
     transform="translate(311,-84)"
     id="g3404">
    <text
       x="419"
       y="229"
       id="text3406"
       style="font-size:8px;font-style:italic;text-align:end;line-height:125%;text-anchor:end;font-family:Arial Italic"><tspan
         x="419"
         y="229"
         id="tspan3408">like14</tspan></text>
    <path
       d="m 439,215 a 29,29 0 1 1 -58,0 29,29 0 1 1 58,0 z"
       transform="translate(-2,-4)"
       id="path3410"
       style="fill:none;stroke:#000000;stroke-width:1" />
    <text
       x="403"
       y="215"
       id="text3412"
       style="font-size:10px;line-height:125%;font-family:Arial"><tspan
         x="403"
         y="215"
         id="tspan3414">87</tspan></text>
  </g>
  <path
     d="m 739,106 4,0 0,-5 5,0 0,-5 16,0 C 776,96 776,97 776,113 l 0,118 c 0,8 -2,10 -10,10 l -53,0 -4,0 0,-5 -5,0 0,-5 -5,0 0,-5 -5,0"
     id="path3416"
     style="fill:none;stroke:#000000;stroke-width:2" />
  <path
     d="m 193,678 -13,1 c -10,0 -12,-1 -12,-10 l 0,-153"
     id="path3646"
     style="fill:none;stroke:#000000;stroke-width:2" />
  <path
     d="m 286,390 3,19 3,-19 c -3,1 -2,-1 -6,0 z"
     id="path3648"
     style="fill:#000000;stroke:none" />
  <path
     d="m 256,655 3,19 3,-19 c -3,2 -2,-2 -6,0 z"
     id="path3650"
     style="fill:#000000;stroke:none" />
  <path
     d="m 681,176 3,19 3,-19 c -3,2 -2,-2 -6,0 z"
     id="path3652"
     style="fill:#000000;stroke:none" />
</svg>
